 <svg xmlns="http://www.w3.org/2000/svg" xmlns:xlink="http://www.w3.org/1999/xlink" version="1.1" x="0px" y="0px" viewBox="0 0 100 100" enable-background="new 0 0 100 100" xml:space="preserve"  width="100%" height="100%" class="" fill="rgba(244, 64, 37, 1)"><g><path d="M83.824,38.355c-2.571,0-5.5,0.713-7.41,2.435c-1.213,1.091-2.092,2.649-2.461,4.241c-0.434,1.863-0.338,2.944-0.304,4.629   c0.045,2.279-0.464,4.648-2.029,6.383c-1.215,1.347-3.024,2.266-4.84,2.427h-8.575H41.796h-8.575   c-1.815-0.161-3.626-1.08-4.842-2.427c-1.564-1.734-2.072-4.104-2.028-6.383c0.034-1.685,0.13-2.766-0.303-4.629   c-0.37-1.592-1.354-3.257-2.567-4.348c-1.91-1.721-4.733-2.328-7.305-2.328c-5.788,0-10.48,4.691-10.48,10.48   c0,5.646,4.467,10.235,10.057,10.459v9.126c0,4.463,2.882,8.833,6.882,10.198l1.739-0.006c-0.02,0.148-0.045,0.295-0.045,0.448   c0,1.841,1.492,3.334,3.334,3.334h1.694c1.842,0,3.335-1.493,3.335-3.334c0-0.164-0.025-0.32-0.048-0.477h10.846h13.021h10.688   c-0.022,0.156-0.048,0.313-0.048,0.477c0,1.841,1.493,3.334,3.335,3.334h1.693c1.842,0,3.335-1.493,3.335-3.334   c0-0.164-0.026-0.32-0.048-0.477h1.865c4.035-1.401,6.917-5.701,6.917-10.164v-9.126c5.59-0.224,10.057-4.813,10.057-10.459   C94.305,43.047,89.612,38.355,83.824,38.355z"></path><path d="M28.985,43.648v5.928c0,2.798,1.694,5.506,4.388,5.93h33.148c2.481-0.424,4.387-3.132,4.387-5.93v-5.928   c0,0-0.168-9.374,13.128-8.484v-0.62c0-9.355-7.583-16.939-16.938-16.939H33.009c-9.355,0-16.938,7.584-16.938,16.939v0.605   C29.153,34.374,28.985,43.648,28.985,43.648z M42.166,27.662h15.88c0.672,0,1.218,0.545,1.218,1.218   c0,0.672-0.546,1.218-1.218,1.218h-15.88c-0.673,0-1.217-0.546-1.217-1.218C40.949,28.207,41.493,27.662,42.166,27.662z"></path></g></svg>